<svg xmlns="http://www.w3.org/2000/svg" width="1254" height="836" viewBox="0 0 1254 836">
<g>
<path d="M 550.01 372.00 C547.12,381.62 543.77,392.33 542.57,395.79 L 540.38 402.09 L 537.71 399.99 C533.84,396.95 519.82,390.59 510.00,387.43 C505.33,385.92 500.76,384.42 499.87,384.10 C498.44,383.58 499.00,381.12 504.19,365.00 C510.35,345.87 519.82,316.12 526.96,293.50 C529.21,286.35 532.23,276.84 533.66,272.37 L 536.27 264.25 L 543.66 262.62 C549.12,261.43 556.23,261.00 570.78,261.02 C581.63,261.02 591.00,261.36 591.60,261.77 C593.46,263.01 593.44,262.96 615.68,318.00 C618.68,325.42 621.37,332.04 621.66,332.71 C621.96,333.40 619.69,335.48 616.34,337.58 C606.36,343.86 592.70,353.21 588.22,356.83 C585.87,358.73 583.79,360.11 583.59,359.89 C583.39,359.68 580.68,352.98 577.57,345.00 C570.92,327.97 566.81,318.00 566.43,318.00 C566.15,318.00 561.91,331.70 557.60,346.50 C556.32,350.90 552.91,362.38 550.01,372.00 ZM 689.00 489.47 C689.00,490.81 685.42,491.00 660.56,491.00 C644.92,491.00 631.92,490.66 631.67,490.25 C631.16,489.41 625.54,475.75 615.50,451.00 C606.82,429.58 605.47,425.72 603.55,425.41 C603.13,425.34 602.69,425.44 602.14,425.56 C601.86,425.62 601.56,425.68 601.23,425.74 L 597.63 426.32 L 603.57 419.33 C629.93,388.27 642.17,374.76 643.08,375.71 C643.94,376.59 646.44,382.68 668.48,437.50 C676.89,458.40 684.94,478.30 686.38,481.72 C687.82,485.14 689.00,488.63 689.00,489.47 Z" fill="rgb(7,63,114)"/>
<path d="M 550.58 471.72 C545.19,479.54 540.22,486.40 539.54,486.97 C538.62,487.73 536.90,486.38 532.90,481.75 C521.20,468.20 494.55,439.83 481.87,427.43 C465.24,411.16 454.60,403.06 441.75,396.88 C439.14,395.63 437.00,394.28 437.00,393.89 C437.00,390.89 475.71,389.33 487.50,391.84 C505.07,395.59 524.25,403.09 536.00,410.80 L 540.50 413.75 L 551.50 403.09 C585.45,370.18 622.42,341.51 658.00,320.51 C670.86,312.92 703.56,296.26 712.00,293.00 L 717.50 290.88 L 715.00 293.32 C713.62,294.67 705.75,301.71 697.50,308.96 C676.68,327.27 633.34,370.48 611.19,395.00 C585.95,422.94 572.14,440.42 550.58,471.72 Z" fill="rgb(91,178,73)"/>
<path d="M 478.37 496.00 C464.95,498.85 434.65,499.61 421.00,497.43 C393.26,493.02 371.71,482.00 353.86,463.11 C342.63,451.23 336.21,440.48 330.88,424.61 C325.79,409.48 323.73,396.54 323.72,379.50 C323.68,344.59 333.16,318.42 353.57,297.05 C371.53,278.26 390.34,267.83 416.00,262.43 C431.62,259.15 458.77,258.97 476.62,262.04 C488.72,264.12 504.51,268.39 505.40,269.83 C505.84,270.56 492.77,310.56 491.75,311.58 C491.51,311.83 488.88,310.95 485.90,309.64 C477.28,305.84 466.51,303.82 452.00,303.28 C435.47,302.67 425.00,304.42 414.26,309.58 C404.94,314.07 393.30,324.85 388.52,333.42 C374.88,357.91 375.19,392.42 389.30,419.50 C393.40,427.36 406.66,440.65 414.00,444.25 C424.14,449.22 431.06,450.50 447.50,450.45 C462.76,450.40 473.14,448.56 480.95,444.53 L 483.71 443.10 L 497.61 458.23 C505.25,466.55 513.21,475.28 515.30,477.64 L 519.10 481.92 L 514.25 484.37 C507.24,487.92 489.79,493.58 478.37,496.00 ZM 890.48 488.48 C868.57,492.00 853.77,488.91 843.81,478.71 C825.63,460.10 831.70,421.22 854.73,408.76 C863.13,404.21 870.28,402.70 880.94,403.21 C895.36,403.91 903.89,408.40 908.10,417.50 C910.33,422.31 910.55,430.74 908.58,435.47 C906.80,439.73 899.58,447.65 895.61,449.70 C889.14,453.05 878.45,455.96 868.72,457.03 C863.10,457.65 858.37,458.30 858.19,458.48 C857.59,459.08 861.76,466.48 863.68,468.21 C869.86,473.80 886.36,474.84 898.50,470.40 C902.35,469.00 906.29,467.60 907.25,467.31 C908.82,466.82 909.00,467.62 909.00,474.92 L 909.00 483.07 L 904.47 485.01 C901.98,486.08 895.68,487.64 890.48,488.48 ZM 826.31 487.97 C823.66,488.61 816.55,489.34 810.50,489.58 C798.48,490.08 793.84,489.04 789.28,484.84 C784.32,480.27 784.00,478.11 784.00,449.03 L 784.00 422.00 L 773.00 422.00 L 773.00 404.00 L 786.00 404.00 L 786.00 394.07 C786.00,385.47 786.24,384.07 787.75,383.62 C789.68,383.06 807.50,380.00 808.86,380.00 C809.33,380.00 809.49,385.40 809.22,392.00 L 808.73 404.00 L 834.26 404.00 L 833.56 411.25 C832.88,418.45 832.70,421.22 831.31,422.12 C830.45,422.69 829.11,422.53 826.89,422.26 C826.66,422.23 826.41,422.20 826.16,422.17 C823.05,421.80 817.80,421.50 814.50,421.50 L 808.50 421.50 L 808.23 444.09 C807.97,465.71 808.05,466.80 810.05,469.34 C811.86,471.64 812.88,472.00 817.62,472.00 C820.63,472.00 824.40,471.33 825.99,470.50 C827.58,469.68 829.08,469.34 829.32,469.75 C829.55,470.16 830.05,474.17 830.43,478.66 L 831.12 486.81 ZM 725.92 488.83 C719.79,490.24 709.61,490.23 705.50,488.80 C701.83,487.52 697.39,483.52 695.16,479.50 C693.73,476.91 693.51,473.02 693.60,451.00 C693.65,436.98 694.04,411.21 694.46,393.75 L 695.23 362.00 L 720.20 362.00 L 719.63 368.75 C719.32,372.46 718.93,396.35 718.78,421.84 L 718.50 468.17 L 720.99 470.19 C722.98,471.80 724.36,472.09 727.85,471.61 C732.02,471.04 732.20,471.11 731.63,473.25 C731.30,474.49 731.02,478.24 731.01,481.58 L 731.00 487.66 ZM 763.00 467.66 L 763.00 489.00 L 737.84 489.00 L 738.44 464.75 C738.77,451.41 739.30,432.29 739.63,422.25 L 740.22 404.00 L 764.32 404.00 L 763.66 425.16 C763.30,436.80 763.00,455.92 763.00,467.66 ZM 759.98 391.25 C756.33,393.08 749.90,393.46 746.50,392.04 C739.83,389.27 736.46,380.63 739.34,373.74 C741.57,368.40 746.06,366.01 753.87,366.00 C759.93,366.00 760.42,366.18 764.12,369.88 C767.47,373.23 768.00,374.38 768.00,378.23 C768.00,383.73 764.89,388.78 759.98,391.25 ZM 858.31 438.01 L 857.71 443.11 L 863.10 442.49 C866.07,442.15 871.76,440.73 875.74,439.34 C887.14,435.35 891.05,428.66 885.65,422.38 C883.69,420.10 882.33,419.59 877.40,419.27 C869.35,418.75 865.36,420.90 861.71,427.71 C860.17,430.58 858.64,435.21 858.31,438.01 Z" fill="rgb(250,101,40)"/>
<path d="M 0.00 418.00 L 0.00 0.00 L 627.00 0.00 L 1254.00 0.00 L 1254.00 418.00 L 1254.00 836.00 L 627.00 836.00 L 0.00 836.00 L 0.00 418.00 ZM 478.37 496.00 C489.79,493.58 507.24,487.92 514.25,484.37 L 519.10 481.92 L 515.30 477.64 C513.21,475.28 505.25,466.55 497.61,458.23 L 483.71 443.10 L 480.95 444.53 C473.14,448.56 462.76,450.40 447.50,450.45 C431.06,450.50 424.14,449.22 414.00,444.25 C406.66,440.65 393.40,427.36 389.30,419.50 C375.19,392.42 374.88,357.91 388.52,333.42 C393.30,324.85 404.94,314.07 414.26,309.58 C425.00,304.42 435.47,302.67 452.00,303.28 C466.51,303.82 477.28,305.84 485.90,309.64 C488.88,310.95 491.51,311.83 491.75,311.58 C492.77,310.56 505.84,270.56 505.40,269.83 C504.51,268.39 488.72,264.12 476.62,262.04 C458.77,258.97 431.62,259.15 416.00,262.43 C390.34,267.83 371.53,278.26 353.57,297.05 C333.16,318.42 323.68,344.59 323.72,379.50 C323.73,396.54 325.79,409.48 330.88,424.61 C336.21,440.48 342.63,451.23 353.86,463.11 C371.71,482.00 393.26,493.02 421.00,497.43 C434.65,499.61 464.95,498.85 478.37,496.00 ZM 689.00 489.47 C689.00,488.63 687.82,485.14 686.38,481.72 C684.94,478.30 676.89,458.40 668.48,437.50 C646.44,382.68 643.94,376.59 643.08,375.71 C642.17,374.76 629.93,388.27 603.57,419.33 L 597.63 426.32 L 601.23 425.74 C605.37,425.06 604.00,422.64 615.50,451.00 C625.54,475.75 631.16,489.41 631.67,490.25 C631.92,490.66 644.92,491.00 660.56,491.00 C685.42,491.00 689.00,490.81 689.00,489.47 ZM 725.92 488.83 L 731.00 487.66 L 731.01 481.58 C731.02,478.24 731.30,474.49 731.63,473.25 C732.20,471.11 732.02,471.04 727.85,471.61 C724.36,472.09 722.98,471.80 720.99,470.19 L 718.50 468.17 L 718.78 421.84 C718.93,396.35 719.32,372.46 719.63,368.75 L 720.20 362.00 L 707.72 362.00 L 695.23 362.00 L 694.46 393.75 C694.04,411.21 693.65,436.98 693.60,451.00 C693.51,473.02 693.73,476.91 695.16,479.50 C697.39,483.52 701.83,487.52 705.50,488.80 C709.61,490.23 719.79,490.24 725.92,488.83 ZM 826.31 487.97 L 831.12 486.81 L 830.43 478.66 C830.05,474.17 829.55,470.16 829.32,469.75 C829.08,469.34 827.58,469.68 825.99,470.50 C824.40,471.33 820.63,472.00 817.62,472.00 C812.88,472.00 811.86,471.64 810.05,469.34 C808.05,466.80 807.97,465.71 808.23,444.09 L 808.50 421.50 L 814.50 421.50 C817.80,421.50 823.05,421.80 826.16,422.17 C832.71,422.94 832.40,423.40 833.56,411.25 L 834.26 404.00 L 821.49 404.00 L 808.73 404.00 L 809.22 392.00 C809.49,385.40 809.33,380.00 808.86,380.00 C807.50,380.00 789.68,383.06 787.75,383.62 C786.24,384.07 786.00,385.47 786.00,394.07 L 786.00 404.00 L 779.50 404.00 L 773.00 404.00 L 773.00 413.00 L 773.00 422.00 L 778.50 422.00 L 784.00 422.00 L 784.00 449.03 C784.00,478.11 784.32,480.27 789.28,484.84 C793.84,489.04 798.48,490.08 810.50,489.58 C816.55,489.34 823.66,488.61 826.31,487.97 ZM 890.48 488.48 C895.68,487.64 901.98,486.08 904.47,485.01 L 909.00 483.07 L 909.00 474.92 C909.00,467.62 908.82,466.82 907.25,467.31 C906.29,467.60 902.35,469.00 898.50,470.40 C886.36,474.84 869.86,473.80 863.68,468.21 C861.76,466.48 857.59,459.08 858.19,458.48 C858.37,458.30 863.10,457.65 868.72,457.03 C878.45,455.96 889.14,453.05 895.61,449.70 C899.58,447.65 906.80,439.73 908.58,435.47 C910.55,430.74 910.33,422.31 908.10,417.50 C903.89,408.40 895.36,403.91 880.94,403.21 C870.28,402.70 863.13,404.21 854.73,408.76 C831.70,421.22 825.63,460.10 843.81,478.71 C853.77,488.91 868.57,492.00 890.48,488.48 ZM 763.00 467.66 C763.00,455.92 763.30,436.80 763.66,425.16 L 764.32 404.00 L 752.27 404.00 L 740.22 404.00 L 739.63 422.25 C739.30,432.29 738.77,451.41 738.44,464.75 L 737.84 489.00 L 750.42 489.00 L 763.00 489.00 L 763.00 467.66 ZM 550.58 471.72 C572.14,440.42 585.95,422.94 611.19,395.00 C633.34,370.48 676.68,327.27 697.50,308.96 C705.75,301.71 713.62,294.67 715.00,293.32 L 717.50 290.88 L 712.00 293.00 C703.56,296.26 670.86,312.92 658.00,320.51 C622.42,341.51 585.45,370.18 551.50,403.09 L 540.50 413.75 L 536.00 410.80 C524.25,403.09 505.07,395.59 487.50,391.84 C475.71,389.33 437.00,390.89 437.00,393.89 C437.00,394.28 439.14,395.63 441.75,396.88 C454.60,403.06 465.24,411.16 481.87,427.43 C494.55,439.83 521.20,468.20 532.90,481.75 C536.90,486.38 538.62,487.73 539.54,486.97 C540.22,486.40 545.19,479.54 550.58,471.72 ZM 550.01 372.00 C552.91,362.38 556.32,350.90 557.60,346.50 C561.91,331.70 566.15,318.00 566.43,318.00 C566.81,318.00 570.92,327.97 577.57,345.00 C580.68,352.98 583.39,359.68 583.59,359.89 C583.79,360.11 585.87,358.73 588.22,356.83 C592.70,353.21 606.36,343.86 616.34,337.58 C619.69,335.48 621.96,333.40 621.66,332.71 C621.37,332.04 618.68,325.42 615.68,318.00 C593.44,262.96 593.46,263.01 591.60,261.77 C591.00,261.36 581.63,261.02 570.78,261.02 C556.23,261.00 549.12,261.43 543.66,262.62 L 536.27 264.25 L 533.66 272.37 C532.23,276.84 529.21,286.35 526.96,293.50 C519.82,316.12 510.35,345.87 504.19,365.00 C499.00,381.12 498.44,383.58 499.87,384.10 C500.76,384.42 505.33,385.92 510.00,387.43 C519.82,390.59 533.84,396.95 537.71,399.99 L 540.38 402.09 L 542.57 395.79 C543.77,392.33 547.12,381.62 550.01,372.00 ZM 759.98 391.25 C764.89,388.78 768.00,383.73 768.00,378.23 C768.00,374.38 767.47,373.23 764.12,369.88 C760.42,366.18 759.93,366.00 753.87,366.00 C746.06,366.01 741.57,368.40 739.34,373.74 C736.46,380.63 739.83,389.27 746.50,392.04 C749.90,393.46 756.33,393.08 759.98,391.25 ZM 858.31 438.01 C858.64,435.21 860.17,430.58 861.71,427.71 C865.36,420.90 869.35,418.75 877.40,419.27 C882.33,419.59 883.69,420.10 885.65,422.38 C891.05,428.66 887.14,435.35 875.74,439.34 C871.76,440.73 866.07,442.15 863.10,442.49 L 857.71 443.11 L 858.31 438.01 Z" fill="rgb(254,254,254)"/>
</g>
</svg>